<?xml version="1.0" encoding="UTF-8" standalone="no"?>
<!DOCTYPE svg PUBLIC "-//W3C//DTD SVG 1.1//EN" "http://www.w3.org/Graphics/SVG/1.1/DTD/svg11.dtd">
<svg width="100%" height="100%" viewBox="0 0 117 118" version="1.1" xmlns="http://www.w3.org/2000/svg" xmlns:xlink="http://www.w3.org/1999/xlink" xml:space="preserve" xmlns:serif="http://www.serif.com/" style="fill-rule:evenodd;clip-rule:evenodd;stroke-linecap:round;stroke-linejoin:round;">
    <g transform="matrix(1,0,0,1,-253.783,-106.502)">
        <g transform="matrix(1,0,0,1,200,76)">
            <g id="Group-10-Copy-4" transform="matrix(0.534324,0,0,0.534324,60.5322,9.31141)">
                <g id="Oval-11" transform="matrix(0.990268,0.139173,-0.139173,0.990268,31.3202,-3.94547)">
                    <path d="M2.872,229.477C11.475,239.432 23.973,245.477 37.872,245.477C63.834,245.477 84.872,224.435 84.872,198.477" style="fill:none;stroke:rgb(157,181,208);stroke-width:29.72px;"/>
                </g>
                <g id="Rectangle-44" transform="matrix(1,0,0,1,53.2628,107.461)">
                    <g id="Rectangle-42-Copy" transform="matrix(3.82857e-16,-1,-1,-3.82857e-16,263.908,263.908)">
                        <path d="M123.222,112.17L123.515,112.17C130.062,112.17 135.369,117.477 135.369,124.024L135.369,157.317C135.369,163.863 130.062,169.17 123.515,169.17L123.222,169.17C116.676,169.17 111.369,163.863 111.369,157.317L111.369,124.024C111.369,117.477 116.676,112.17 123.222,112.17Z" style="fill:rgb(172,193,217);"/>
                    </g>
                    <g id="Group-9" transform="matrix(1,0,0,1,16.7372,0.539005)">
                        <path id="Mask" d="M47.272,1L72.728,1C88.058,1 101.206,11.939 103.994,27.015L118.802,107.09C122.618,127.727 108.982,147.55 88.345,151.366C86.066,151.788 83.753,152 81.435,152L38.565,152C17.578,152 0.565,134.987 0.565,114C0.565,111.682 0.777,109.369 1.198,107.09L16.006,27.015C18.794,11.939 31.942,1 47.272,1Z" style="fill:rgb(172,193,217);"/>
                        <clipPath id="_clip1">
                            <path id="Mask1" serif:id="Mask" d="M47.272,1L72.728,1C88.058,1 101.206,11.939 103.994,27.015L118.802,107.09C122.618,127.727 108.982,147.55 88.345,151.366C86.066,151.788 83.753,152 81.435,152L38.565,152C17.578,152 0.565,134.987 0.565,114C0.565,111.682 0.777,109.369 1.198,107.09L16.006,27.015C18.794,11.939 31.942,1 47.272,1Z"/>
                        </clipPath>
                        <g clip-path="url(#_clip1)">
                            <path id="Rectangle-441" serif:id="Rectangle-44" d="M85.5,65C106.763,65 124,82.237 124,103.5L124,135.896C124,145.342 116.342,153 106.896,153L64.104,153C54.658,153 47,145.342 47,135.896L47,103.5C47,82.237 64.237,65 85.5,65Z" style="fill:rgb(239,246,255);"/>
                        </g>
                    </g>
                    <g id="Rectangle-42-Copy-4" transform="matrix(3.82857e-16,-1,-1,-3.82857e-16,169.908,169.908)">
                        <path d="M29.222,112.17L29.515,112.17C36.062,112.17 41.369,117.477 41.369,124.024L41.369,157.317C41.369,163.863 36.062,169.17 29.515,169.17L29.222,169.17C22.676,169.17 17.369,163.863 17.369,157.317L17.369,124.024C17.369,117.477 22.676,112.17 29.222,112.17Z" style="fill:rgb(172,193,217);"/>
                    </g>
                </g>
                <g id="Rectangle-42" transform="matrix(-0.669131,0.743145,0.743145,0.669131,64.2723,-28.6159)">
                    <path d="M126.026,158.92C135.967,158.92 144.027,166.979 144.027,176.921L144.027,216.222C144.027,226.163 135.967,234.223 126.026,234.223C116.084,234.223 108.025,226.163 108.025,216.222L108.025,176.921C108.025,166.979 116.084,158.92 126.026,158.92Z" style="fill:rgb(172,193,217);"/>
                </g>
                <g transform="matrix(0.984808,-0.173648,0.173648,0.984808,38.4128,27.0822)">
                    <g id="Group-4">
                        <g id="Group-8">
                            <g id="Triangle-2" transform="matrix(-0.857167,-0.515038,-0.515038,0.857167,200.143,55.5045)">
                                <path d="M64.914,17.164L135.1,62.021L58.098,64.078L58.098,20.896C58.098,18.45 60.082,16.466 62.528,16.466C63.374,16.466 64.201,16.708 64.914,17.164Z" style="fill:rgb(172,193,217);"/>
                            </g>
                            <g id="Triangle-21" serif:id="Triangle-2" transform="matrix(0.891007,-0.45399,0.45399,0.891007,-12.3914,27.2908)">
                                <path d="M18.956,16.344L89.142,61.201L12.141,63.258L12.141,20.076C12.141,17.63 14.124,15.646 16.57,15.646C17.416,15.646 18.244,15.888 18.956,16.344Z" style="fill:rgb(172,193,217);"/>
                            </g>
                            <g id="Rectangle-4" transform="matrix(1,0,0,1,0.249316,32)">
                                <path id="Mask2" serif:id="Mask" d="M75.07,0C103.003,0 128.504,15.889 140.813,40.964L148.06,55.725C152.667,65.111 148.794,76.454 139.408,81.061C136.812,82.336 133.958,82.999 131.066,82.999L19.075,82.999C8.619,82.999 0.144,74.523 0.144,64.068C0.144,61.175 0.806,58.322 2.081,55.725L9.328,40.964C21.637,15.889 47.137,0 75.07,0Z" style="fill:rgb(172,193,217);"/>
                                <clipPath id="_clip2">
                                    <path id="Mask3" serif:id="Mask" d="M75.07,0C103.003,0 128.504,15.889 140.813,40.964L148.06,55.725C152.667,65.111 148.794,76.454 139.408,81.061C136.812,82.336 133.958,82.999 131.066,82.999L19.075,82.999C8.619,82.999 0.144,74.523 0.144,64.068C0.144,61.175 0.806,58.322 2.081,55.725L9.328,40.964C21.637,15.889 47.137,0 75.07,0Z"/>
                                </clipPath>
                                <g clip-path="url(#_clip2)">
                                    <path id="Rectangle-43" d="M1.843,39.012L35.328,39.012C39.756,39.012 43.346,42.602 43.346,47.03L43.346,47.052C43.346,51.48 39.756,55.07 35.328,55.07L1.843,55.07C-2.585,55.07 -6.174,51.48 -6.174,47.052L-6.174,47.03C-6.174,42.602 -2.585,39.012 1.843,39.012Z" style="fill:rgb(151,171,194);"/>
                                    <path id="Rectangle-431" serif:id="Rectangle-43" d="M-9.519,60.423L13.966,60.423C18.394,60.423 21.983,64.012 21.983,68.44L21.983,68.463C21.983,72.891 18.394,76.48 13.966,76.48L-9.519,76.48C-13.947,76.48 -17.536,72.891 -17.536,68.463L-17.536,68.44C-17.536,64.012 -13.947,60.423 -9.519,60.423Z" style="fill:rgb(151,171,194);"/>
                                    <g id="Rectangle-432" serif:id="Rectangle-43" transform="matrix(-0.108796,0.617014,-0.649671,-0.114555,111.689,37.0836)">
                                        <path d="M-9.519,60.423L13.966,60.423C18.394,60.423 21.983,64.012 21.983,68.44L21.983,68.463C21.983,72.891 18.394,76.48 13.966,76.48L-9.519,76.48C-13.947,76.48 -17.536,72.891 -17.536,68.463L-17.536,68.44C-17.536,64.012 -13.947,60.423 -9.519,60.423Z" style="fill:rgb(72,84,98);"/>
                                    </g>
                                    <g id="Rectangle-433" serif:id="Rectangle-43" transform="matrix(-0.108796,0.617014,-0.649671,-0.114555,143.18,41.6335)">
                                        <path d="M-9.519,60.423L13.966,60.423C18.394,60.423 21.983,64.012 21.983,68.44L21.983,68.463C21.983,72.891 18.394,76.48 13.966,76.48L-9.519,76.48C-13.947,76.48 -17.536,72.891 -17.536,68.463L-17.536,68.44C-17.536,64.012 -13.947,60.423 -9.519,60.423Z" style="fill:rgb(72,84,98);"/>
                                    </g>
                                    <path id="Rectangle-434" serif:id="Rectangle-43" d="M179.52,68.029C179.52,63.598 175.922,60 171.491,60L148.029,60C143.598,60 140,63.598 140,68.029C140,72.46 143.598,76.058 148.029,76.058L171.491,76.058C175.922,76.058 179.52,72.46 179.52,68.029Z" style="fill:rgb(151,171,194);"/>
                                    <path id="Rectangle-435" serif:id="Rectangle-43" d="M135.018,39L158.502,39C162.93,39 166.52,42.59 166.52,47.018L166.52,47.04C166.52,51.468 162.93,55.058 158.502,55.058L135.018,55.058C130.59,55.058 127,51.468 127,47.04L127,47.018C127,42.59 130.59,39 135.018,39Z" style="fill:rgb(151,171,194);"/>
                                    <g id="Rectangle-436" serif:id="Rectangle-43" transform="matrix(7.21645e-16,1,-1,7.21645e-16,88.8169,-84.4678)">
                                        <path d="M84.548,-5.854L88.736,-5.854C93.164,-5.854 96.754,-2.265 96.754,2.163L96.754,2.186C96.754,6.614 93.164,10.203 88.736,10.203L84.548,10.203C80.12,10.203 76.531,6.614 76.531,2.186L76.531,2.163C76.531,-2.265 80.12,-5.854 84.548,-5.854Z" style="fill:rgb(151,171,194);"/>
                                    </g>
                                </g>
                            </g>
                            <g id="Triangle" transform="matrix(1,0,0,-1,-10.6332,175.086)">
                                <path d="M98.777,81.472L103.781,87.049C105.415,88.87 105.263,91.671 103.442,93.305C102.629,94.034 101.576,94.438 100.484,94.438L90.43,94.438C87.983,94.438 86,92.454 86,90.008C86,88.909 86.408,87.849 87.146,87.035L92.195,81.457C93.837,79.643 96.639,79.504 98.452,81.146C98.566,81.249 98.674,81.358 98.777,81.472Z" style="fill:rgb(255,142,142);"/>
                            </g>
                        </g>
                    </g>
                </g>
            </g>
        </g>
    </g>
</svg>
