<?xml version="1.0" encoding="UTF-8" standalone="no"?>
<!DOCTYPE svg PUBLIC "-//W3C//DTD SVG 1.1//EN" "http://www.w3.org/Graphics/SVG/1.1/DTD/svg11.dtd">
<svg width="100%" height="100%" viewBox="0 0 694 641" version="1.1" xmlns="http://www.w3.org/2000/svg" xmlns:xlink="http://www.w3.org/1999/xlink" xml:space="preserve" xmlns:serif="http://www.serif.com/" style="fill-rule:evenodd;clip-rule:evenodd;stroke-linecap:round;stroke-linejoin:round;">
    <g transform="matrix(1,0,0,1,-309.719,-291.753)">
        <g id="Group-18-Copy" transform="matrix(0.866025,0.5,-0.5,0.866025,585.444,-26.1456)">
            <g id="cv" transform="matrix(0.796744,-0.604316,0.604316,0.796744,-335.597,404.802)">
                <path d="M325.708,733.327C329.471,748.204 339.315,759.218 355.24,766.371" style="fill:none;stroke:rgb(244,144,0);stroke-width:57.35px;"/>
            </g>
            <g id="Path-17" transform="matrix(-0.999391,-0.0348995,-0.0348995,0.999391,1120.25,19.5541)">
                <path d="M532.442,733.327C536.206,748.204 546.05,759.218 561.975,766.371" style="fill:none;stroke:rgb(244,144,0);stroke-width:57.35px;"/>
            </g>
            <g id="Combined-Shape-Copy-87" transform="matrix(0.207912,-0.978148,0.978148,0.207912,-371.781,682.29)">
                <path d="M80.208,464.666L403.279,544.919C420.596,549.22 428.657,569.119 419.2,584.217C373.761,656.757 285.382,692.69 200.028,671.488C114.673,650.285 53.572,577.22 47.633,491.917C46.397,474.163 62.892,460.364 80.208,464.666Z" style="fill:rgb(88,204,2);fill-rule:nonzero;"/>
            </g>
            <g id="Combined-Shape-Copy-88" transform="matrix(-0.390731,-0.920505,-0.920505,0.390731,1170.5,774.735)">
                <path d="M375.521,363.793L698.537,443.998C715.851,448.297 723.908,468.197 714.449,483.298C669.002,555.855 580.629,591.809 495.288,570.619C409.948,549.429 348.868,476.365 342.945,391.053C341.712,373.297 358.207,359.494 375.521,363.793Z" style="fill:rgb(88,204,2);fill-rule:nonzero;"/>
            </g>
            <g id="Mask" transform="matrix(0.920505,-0.390731,0.390731,0.920505,-130.924,164.487)">
                <path d="M212.98,222.793C304.571,249.876 363.948,263.412 391.11,263.401C406.658,263.395 422.856,256.763 439.705,243.507C472.065,218.046 518.938,223.639 544.399,255.999C554.745,269.149 560.367,285.398 560.36,302.13L560.268,526.692C560.218,649.075 461.02,748.273 338.637,748.323C216.385,748.374 117.239,649.309 117.188,527.057C117.188,526.996 117.188,526.935 117.188,526.875L117.284,294.256C117.301,253.081 150.694,219.715 191.869,219.732C199.016,219.735 206.126,220.766 212.98,222.793Z" style="fill:rgb(88,204,2);"/>
            </g>
            <g id="Path-36" transform="matrix(0.920505,-0.390731,0.390731,0.920505,-109.278,183.396)">
                <path d="M359.65,304.926C378.519,325.579 409.34,322.134 425.152,304.696C449.652,278.257 453.86,317.928 437.778,423.709L345.895,423.747C342.485,330.765 347.07,291.158 359.65,304.926Z" style="fill:rgb(137,226,25);"/>
            </g>
            <g id="Rectangle-130" transform="matrix(0.920505,-0.390731,0.390731,0.920505,-140.723,152.326)">
                <path d="M300.794,314.186L307.278,314.184C352.989,314.097 390.061,351.138 390.08,396.849C390.08,396.871 390.08,396.894 390.012,396.917L389.991,447.012C389.904,492.696 352.874,529.726 307.19,529.813L300.705,529.816C254.994,529.903 217.922,492.862 217.904,447.151C217.904,447.128 217.904,447.105 217.972,447.083L217.992,396.988C218.079,351.303 255.109,314.273 300.794,314.186Z" style="fill:rgb(137,226,25);"/>
            </g>
            <g id="Combined-Shape-Copy-57" transform="matrix(0.906308,0.422618,-0.422618,0.906308,166.69,-93.9759)">
                <path d="M245.649,304.8L344.069,303.753C349.293,303.753 352.998,308.848 351.385,313.816C343.636,337.681 321.087,354.161 295.335,354.159C269.583,354.158 247.032,337.676 239.281,313.809C237.667,308.842 240.424,304.799 245.649,304.8Z" style="fill:rgb(137,226,25);fill-rule:nonzero;"/>
            </g>
            <g id="Combined-Shape-Copy-58" transform="matrix(0.906308,0.422618,-0.422618,0.906308,176.906,-80.9277)">
                <path d="M222.203,333.315L319.743,333.32C324.971,333.321 328.678,338.416 327.064,343.383C319.31,367.249 296.746,383.729 270.976,383.727C245.206,383.726 222.64,367.243 214.883,343.377C213.268,338.409 216.975,333.315 222.203,333.315Z" style="fill:rgb(137,226,25);fill-rule:nonzero;"/>
            </g>
            <g id="Group-5" transform="matrix(-0.891007,0.45399,0.45399,0.891007,484.678,177.182)">
                <g id="Combined-Shape-Copy-571" serif:id="Combined-Shape-Copy-57" transform="matrix(0.669131,0.743145,-0.743145,0.669131,63.6473,-40.6944)">
                    <path d="M37.026,26.982L117.31,25.938C121.572,25.938 124.595,31.032 123.28,35.997C116.964,59.852 98.574,76.324 77.567,76.322C56.56,76.32 38.161,59.844 31.833,35.987C30.516,31.022 32.764,26.981 37.026,26.982Z" style="fill:rgb(137,226,25);fill-rule:nonzero;"/>
                </g>
                <g id="Combined-Shape-Copy-581" serif:id="Combined-Shape-Copy-58" transform="matrix(0.669131,0.743145,-0.743145,0.669131,67.3746,-14.2863)">
                    <path d="M9.946,43.324L89.512,43.332C93.777,43.332 96.802,48.426 95.487,53.391C89.166,77.246 70.764,93.718 49.742,93.716C28.721,93.714 10.309,77.238 3.977,53.381C2.658,48.416 5.681,43.324 9.946,43.324Z" style="fill:rgb(137,226,25);fill-rule:nonzero;"/>
                </g>
            </g>
            <g id="Rectangle-1301" serif:id="Rectangle-130" transform="matrix(0.920505,-0.390731,0.390731,0.920505,-96.4582,216.838)">
                <path d="M484.711,237.658C520.668,237.643 549.829,266.779 549.843,302.736C549.843,302.754 549.843,302.772 549.843,302.79L549.808,388.102C549.793,424.097 520.618,453.273 484.623,453.288C448.666,453.302 419.506,424.166 419.491,388.209C419.491,388.191 419.491,388.173 419.491,388.156L419.526,302.843C419.541,266.848 448.717,237.673 484.711,237.658Z" style="fill:rgb(137,226,25);"/>
            </g>
            <g id="Path-18-Copy" transform="matrix(0.920505,-0.390731,0.390731,0.920505,403.63,296.565)">
                <g id="Rectangle-130---Oval-2-Mask" serif:id="Rectangle-130-+-Oval-2-Mask">
                    <path id="Mask1" serif:id="Mask" d="M48.711,0.218C75.605,0.218 97.407,22.019 97.407,48.913L97.407,109.193C97.407,136.087 75.605,157.889 48.711,157.889C21.818,157.889 0.016,136.087 0.016,109.193L0.016,48.913C0.016,22.019 21.818,0.218 48.711,0.218Z" style="fill:white;"/>
                    <clipPath id="_clip1">
                        <path id="Mask2" serif:id="Mask" d="M48.711,0.218C75.605,0.218 97.407,22.019 97.407,48.913L97.407,109.193C97.407,136.087 75.605,157.889 48.711,157.889C21.818,157.889 0.016,136.087 0.016,109.193L0.016,48.913C0.016,22.019 21.818,0.218 48.711,0.218Z"/>
                    </clipPath>
                    <g clip-path="url(#_clip1)">
                        <g id="Rectangle-1302" serif:id="Rectangle-130" transform="matrix(0.999848,-0.0174524,0.0174524,0.999848,-4.11077,30.1167)">
                            <path d="M74.094,1.106C87.131,1.106 97.699,11.674 97.699,24.71L97.698,67.169C97.698,80.206 87.129,90.774 74.092,90.774C61.056,90.775 50.488,80.207 50.488,67.171L50.488,24.712C50.489,11.675 61.057,1.107 74.094,1.106Z" style="fill:rgb(75,75,75);"/>
                        </g>
                        <g id="Oval-2" transform="matrix(1,0,0,1,-3.32028,28.8166)">
                            <ellipse cx="46.361" cy="13.942" rx="20.847" ry="20.871" style="fill:white;"/>
                        </g>
                    </g>
                    <path id="Path" d="M98.101,105.267C54.492,103.175 40.981,102.232 5.232,131.981L32.263,175.475C56.251,155.25 66.733,166.605 94.268,167.722L95.103,167.759L98.101,105.267Z" style="fill:rgb(137,226,25);fill-rule:nonzero;"/>
                </g>
            </g>
            <g id="Group-Copy-3" transform="matrix(0.920505,-0.390731,0.390731,0.920505,398.652,580.281)">
                <path id="Combined-Shape-Copy-46" d="M4.439,0.908L60.187,0.888C63.175,0.887 65.293,3.647 64.369,6.34C59.931,19.276 47.031,28.213 32.302,28.219C17.574,28.224 4.681,19.296 0.253,6.363C-0.669,3.671 1.451,0.909 4.439,0.908Z" style="fill:rgb(137,226,25);fill-rule:nonzero;"/>
                <path id="Combined-Shape-Copy-461" serif:id="Combined-Shape-Copy-46" d="M96.514,0.908L152.262,0.888C155.25,0.887 157.368,3.647 156.444,6.34C152.006,19.276 139.106,28.213 124.377,28.219C109.649,28.224 96.755,19.296 92.328,6.363C91.406,3.671 93.526,0.909 96.514,0.908Z" style="fill:rgb(137,226,25);fill-rule:nonzero;"/>
                <path id="Combined-Shape-Copy-462" serif:id="Combined-Shape-Copy-46" d="M53.083,47.868L108.83,47.847C111.818,47.846 113.936,50.607 113.012,53.3C108.574,66.236 95.674,75.173 80.946,75.179C66.217,75.184 53.324,66.256 48.896,53.323C47.975,50.631 50.095,47.869 53.083,47.868Z" style="fill:rgb(137,226,25);fill-rule:nonzero;"/>
            </g>
            <g transform="matrix(0.920505,-0.390731,0.390731,0.920505,188.245,366.527)">
                <g id="Rectangle-130-Copy-42---Oval-2-Mask" serif:id="Rectangle-130-Copy-42-+-Oval-2-Mask">
                    <path id="Mask3" serif:id="Mask" d="M87.47,17.937C121.069,17.923 148.318,45.149 148.332,78.749C148.332,78.766 148.332,78.782 148.332,78.799L148.317,116.406C148.303,150.042 121.039,177.305 87.404,177.319C53.804,177.333 26.555,150.106 26.542,116.506C26.542,116.49 26.542,116.473 26.542,116.456L26.557,78.849C26.571,45.214 53.834,17.95 87.47,17.937Z" style="fill:white;"/>
                    <clipPath id="_clip2">
                        <path id="Mask4" serif:id="Mask" d="M87.47,17.937C121.069,17.923 148.318,45.149 148.332,78.749C148.332,78.766 148.332,78.782 148.332,78.799L148.317,116.406C148.303,150.042 121.039,177.305 87.404,177.319C53.804,177.333 26.555,150.106 26.542,116.506C26.542,116.49 26.542,116.473 26.542,116.456L26.557,78.849C26.571,45.214 53.834,17.95 87.47,17.937Z"/>
                    </clipPath>
                    <g clip-path="url(#_clip2)">
                        <g id="Rectangle-1303" serif:id="Rectangle-130" transform="matrix(0.999848,-0.0174524,0.0174524,0.999848,37.5989,63.6187)">
                            <path d="M74.094,1.106C87.131,1.106 97.699,11.674 97.699,24.71L97.698,67.169C97.698,80.206 87.129,90.774 74.092,90.774C61.056,90.775 50.488,80.207 50.488,67.171L50.488,24.712C50.489,11.675 61.057,1.107 74.094,1.106Z" style="fill:rgb(75,75,75);"/>
                        </g>
                        <g id="Oval-21" serif:id="Oval-2" transform="matrix(1,0,0,1,38.3894,62.3186)">
                            <ellipse cx="46.361" cy="13.942" rx="20.847" ry="20.871" style="fill:white;"/>
                        </g>
                    </g>
                </g>
            </g>
            <path id="Path-18" d="M254.341,458.397C293.603,438.683 336.343,435.935 380.81,449.856L382.158,450.283L363.069,509.863C333.653,500.438 307.599,501.896 283.155,513.94L282.415,514.308L254.341,458.397Z" style="fill:rgb(137,226,25);fill-rule:nonzero;"/>
            <g id="Group-4" transform="matrix(0.927184,-0.374607,0.374607,0.927184,375.822,413.3)">
                <g transform="matrix(-0.840379,-0.717167,0.748166,-0.876704,481.843,1232.01)">
                    <path d="M1029.78,517.296C1028.43,505.588 1015.22,496.591 999.371,496.591C983.519,496.591 970.308,505.588 968.967,517.296L1029.78,517.296Z" style="fill:rgb(244,144,0);"/>
                </g>
                <path id="Combined-Shape" d="M0.386,36.61C3.802,15.933 22.068,0.539 43.635,0.539C65.202,0.539 83.468,15.933 86.884,36.61L87.118,38.03L65.75,45.373L0.151,38.03L0.386,36.61Z" style="fill:rgb(255,194,0);fill-rule:nonzero;"/>
                <path id="Path-37" d="M34.938,14.647C41.564,12.441 48.19,12.441 54.816,14.647" style="fill:none;stroke:rgb(255,222,0);stroke-width:12.43px;"/>
            </g>
        </g>
        <g transform="matrix(1.6557,0,0,1.6557,820.318,539.108)">
            <g id="Shape" transform="matrix(-1.74408,1.5219,-1.54325,-1.76855,411.689,259.366)">
                <path d="M41.049,165.801L42.172,157.284C42.943,153.214 46.019,149.974 50.04,148.994L103.113,141.84L102.445,136.885L49.249,144.056L49.017,144.099C42.983,145.502 38.362,150.347 37.244,156.441L36.009,165.802L41.049,165.802L41.049,165.801Z" style="fill:rgb(239,75,75);fill-rule:nonzero;"/>
            </g>
        </g>
    </g>
</svg>
