<?xml version="1.0" encoding="UTF-8" standalone="no"?>
<!DOCTYPE svg PUBLIC "-//W3C//DTD SVG 1.1//EN" "http://www.w3.org/Graphics/SVG/1.1/DTD/svg11.dtd">
<svg width="100%" height="100%" viewBox="0 0 151 122" version="1.1" xmlns="http://www.w3.org/2000/svg" xmlns:xlink="http://www.w3.org/1999/xlink" xml:space="preserve" xmlns:serif="http://www.serif.com/" style="fill-rule:evenodd;clip-rule:evenodd;stroke-linejoin:round;stroke-miterlimit:2;">
    <g transform="matrix(1,0,0,1,-30.0449,-46.3743)">
        <g id="Rectangle" transform="matrix(1,0,0,1,30,46)">
            <path id="Mask" d="M75.671,2.358L149.836,115.183C151.171,117.214 150.607,119.942 148.576,121.277C147.858,121.749 147.018,122 146.159,122L4.445,122C2.015,122 0.045,120.03 0.045,117.6C0.045,116.804 0.261,116.023 0.67,115.34L68.219,2.515C69.468,0.43 72.17,-0.248 74.255,1C74.823,1.34 75.307,1.804 75.671,2.358Z" style="fill:rgb(255,206,142);fill-rule:nonzero;"/>
            <clipPath id="_clip1">
                <path id="Mask1" serif:id="Mask" d="M75.671,2.358L149.836,115.183C151.171,117.214 150.607,119.942 148.576,121.277C147.858,121.749 147.018,122 146.159,122L4.445,122C2.015,122 0.045,120.03 0.045,117.6C0.045,116.804 0.261,116.023 0.67,115.34L68.219,2.515C69.468,0.43 72.17,-0.248 74.255,1C74.823,1.34 75.307,1.804 75.671,2.358Z" clip-rule="nonzero"/>
            </clipPath>
            <g clip-path="url(#_clip1)">
                <path d="M79.259,-4.195L158.083,-4.195C161.046,-4.195 163.476,-1.847 163.58,1.114L167.591,116.309C167.697,119.344 165.322,121.891 162.286,121.997C162.222,122 162.158,122 162.095,122L48.257,122L73.877,0.173C74.412,-2.372 76.658,-4.195 79.259,-4.195Z" style="fill:rgb(248,187,115);fill-rule:nonzero;"/>
            </g>
            <path d="M85.562,70L102.528,70C104.043,70 105.428,70.856 106.106,72.211L109.553,79.106C110.047,80.094 109.646,81.295 108.658,81.789C108.381,81.928 108.074,82 107.764,82L89.123,82C87.288,82 85.688,80.751 85.243,78.97L83.621,72.485C83.353,71.413 84.005,70.328 85.076,70.06C85.235,70.02 85.398,70 85.562,70Z" style="fill:rgb(255,206,142);"/>
            <path id="Rectangle-Copy" d="M58,36L74.611,36C76.567,36 78.236,37.414 78.557,39.342L79.612,45.671C79.793,46.761 79.057,47.791 77.968,47.973C77.859,47.991 77.749,48 77.639,48L58,48C55.791,48 54,46.209 54,44L54,40C54,37.791 55.791,36 58,36Z" style="fill:rgb(255,206,142);"/>
            <path id="Rectangle-Copy-2" d="M37.883,92L57,92C59.209,92 61,93.791 61,96L61,100C61,102.209 59.209,104 57,104L33.775,104C32.67,104 31.775,103.105 31.775,102C31.775,101.785 31.81,101.571 31.877,101.368L34.088,94.735C34.633,93.102 36.161,92 37.883,92Z" style="fill:rgb(248,187,115);"/>
        </g>
    </g>
</svg>
