<?xml version="1.0" encoding="UTF-8" standalone="no"?>
<!DOCTYPE svg PUBLIC "-//W3C//DTD SVG 1.1//EN" "http://www.w3.org/Graphics/SVG/1.1/DTD/svg11.dtd">
<svg width="100%" height="100%" viewBox="0 0 176 189" version="1.1" xmlns="http://www.w3.org/2000/svg" xmlns:xlink="http://www.w3.org/1999/xlink" xml:space="preserve" xmlns:serif="http://www.serif.com/" style="fill-rule:evenodd;clip-rule:evenodd;">
    <g transform="matrix(1,0,0,1,-18.7188,-11.7293)">
        <g transform="matrix(1,0,0,1,18.7188,11.7293)">
            <g id="eiffeltower">
                <g id="Group">
                    <g id="Group-55">
                        <path id="Path-17-Copy-3" d="M71.689,158.875L85.53,152.378L92.018,152.378L106.724,160.733L104.565,142.023L71.689,142.023L71.689,158.875Z" style="fill:rgb(117,93,122);"/>
                        <path id="Rectangle-Copy-261" d="M87.831,0C89.466,0 90.792,1.326 90.792,2.961L90.792,18.921C90.792,20.557 89.466,21.882 87.831,21.882C86.196,21.882 84.871,20.557 84.871,18.921L84.871,2.961C84.871,1.326 86.196,0 87.831,0Z" style="fill:rgb(78,62,81);"/>
                        <path id="Shape-Copy-6" d="M107.719,172.57C107.719,161.418 98.815,152.378 87.831,152.378C76.847,152.378 67.943,161.418 67.943,172.57" style="fill:none;stroke:rgb(78,62,81);stroke-width:4.16px;"/>
                        <path id="Rectangle-Copy-265" d="M59.714,144.024L77.544,144.024L65.2,176.443L47.37,176.443L59.714,144.024Z" style="fill:rgb(117,93,122);stroke:rgb(78,62,81);stroke-width:4.16px;"/>
                        <g id="Rectangle-Copy-267" transform="matrix(-1,0,0,1,226.411,0)">
                            <path d="M110.462,144.024L128.293,144.024L115.949,176.443L98.118,176.443L110.462,144.024Z" style="fill:rgb(117,93,122);stroke:rgb(78,62,81);stroke-width:4.16px;"/>
                        </g>
                        <path id="Rectangle-Copy-269" d="M73.43,99.464L87.145,99.464L77.544,132.884L63.829,132.884L73.43,99.464Z" style="fill:rgb(117,93,122);stroke:rgb(78,62,81);stroke-width:4.16px;"/>
                        <g id="Rectangle-Copy-271" transform="matrix(-1,0,0,1,200.351,0)">
                            <path d="M98.118,99.464L111.834,99.464L102.233,132.884L88.517,132.884L98.118,99.464Z" style="fill:rgb(117,93,122);stroke:rgb(78,62,81);stroke-width:4.16px;"/>
                        </g>
                        <path id="Path-Copy-25" d="M81.057,24.269L94.606,24.269L101.463,99.464L74.199,99.464L81.057,24.269Z" style="fill:rgb(117,93,122);stroke:rgb(78,62,81);stroke-width:4.16px;"/>
                        <rect id="Rectangle-Copy-273" x="54.936" y="133.571" width="65.791" height="9.765" style="fill:rgb(78,62,81);stroke:rgb(78,62,81);stroke-width:4.16px;"/>
                        <rect id="Rectangle-Copy-275" x="45.067" y="167.389" width="28.29" height="9.566" style="fill:rgb(78,62,81);stroke:rgb(78,62,81);stroke-width:4.16px;"/>
                        <rect id="Rectangle-Copy-277" x="102.306" y="167.389" width="28.29" height="9.566" style="fill:rgb(78,62,81);stroke:rgb(78,62,81);stroke-width:4.16px;"/>
                        <rect id="Rectangle-Copy-279" x="142.109" y="133.281" width="7.895" height="45.753" style="fill:rgb(141,98,67);"/>
                        <path id="Rectangle-Copy-281" d="M159.873,135.237C159.873,130.864 156.322,127.314 151.949,127.314L140.164,127.314C135.791,127.314 132.24,130.864 132.24,135.237L132.24,155.197C132.24,159.57 135.791,163.121 140.164,163.121L151.949,163.121C156.322,163.121 159.873,159.57 159.873,155.197L159.873,135.237Z" style="fill:rgb(88,167,0);"/>
                        <g id="Rectangle-Copy-283" transform="matrix(0.707107,-0.707107,0.707107,0.707107,-30.6646,85.4635)">
                            <path d="M79.606,72.928L102.775,64.804L94.65,87.973L72.888,94.691L79.606,72.928Z" style="fill:none;stroke:rgb(78,62,81);stroke-width:3.96px;stroke-linejoin:round;"/>
                        </g>
                        <g id="Path-Copy-26" transform="matrix(0.707107,-0.707107,0.707107,0.707107,-3.77549,74.3256)">
                            <path d="M100.125,41.68L75.538,54.014L87.871,29.427" style="fill:none;stroke:rgb(78,62,81);stroke-width:3.96px;stroke-linejoin:round;"/>
                        </g>
                        <rect id="Rectangle-Copy-285" x="157.899" y="133.281" width="7.895" height="45.753" style="fill:rgb(141,98,67);"/>
                        <path id="Rectangle-Copy-287" d="M155.954,133.281L167.739,133.281C172.115,133.281 175.663,136.829 175.663,141.205L175.663,161.165C175.663,165.541 172.115,169.088 167.739,169.088L155.954,169.088C151.578,169.088 148.03,165.541 148.03,161.165L148.03,141.205C148.03,136.829 151.578,133.281 155.954,133.281Z" style="fill:rgb(120,200,0);"/>
                        <g id="Rectangle-Copy-289" transform="matrix(-1,0,0,1,59.2121,0)">
                            <rect x="25.659" y="133.281" width="7.895" height="45.753" style="fill:rgb(141,98,67);"/>
                        </g>
                        <g id="Rectangle-Copy-291" transform="matrix(-1,0,0,1,59.2121,0)">
                            <path d="M43.422,135.237C43.422,130.864 39.872,127.314 35.499,127.314L23.713,127.314C19.34,127.314 15.79,130.864 15.79,135.237L15.79,155.197C15.79,159.57 19.34,163.121 23.713,163.121L35.499,163.121C39.872,163.121 43.422,159.57 43.422,155.197L43.422,135.237Z" style="fill:rgb(88,167,0);"/>
                        </g>
                        <g id="Rectangle-Copy-293" transform="matrix(-1,0,0,1,27.6323,0)">
                            <rect x="9.869" y="133.281" width="7.895" height="45.753" style="fill:rgb(141,98,67);"/>
                        </g>
                        <g id="Rectangle-Copy-295" transform="matrix(-1,0,0,1,27.6323,0)">
                            <path d="M7.924,133.281L19.709,133.281C24.085,133.281 27.632,136.829 27.632,141.205L27.632,161.165C27.632,165.541 24.085,169.088 19.709,169.088L7.924,169.088C3.547,169.088 0,165.541 0,161.165L0,141.205C0,136.829 3.547,133.281 7.924,133.281Z" style="fill:rgb(120,200,0);"/>
                        </g>
                        <path id="Rectangle-Copy-297" d="M5.935,179.035L169.012,179.035C171.2,179.035 172.974,180.809 172.974,182.997L172.974,184.073C172.974,186.261 171.2,188.035 169.012,188.035L5.935,188.035C3.747,188.035 1.974,186.261 1.974,184.073L1.974,182.997C1.974,180.809 3.747,179.035 5.935,179.035Z" style="fill:rgb(175,175,175);fill-opacity:0.3;"/>
                        <rect id="Rectangle-Copy-299" x="67.28" y="98.759" width="41.102" height="9.765" style="fill:rgb(78,62,81);stroke:rgb(78,62,81);stroke-width:4.16px;"/>
                        <path id="Rectangle-Copy-301" d="M75.754,21.973L78.67,33.727L96.993,33.727L99.908,21.973L75.754,21.973Z" style="fill:rgb(78,62,81);stroke:rgb(78,62,81);stroke-width:4.16px;"/>
                        <path id="Rectangle-Copy-302" d="M80.93,13.925L94.732,13.925C95.826,13.925 96.713,14.812 96.713,15.906L96.713,23.871L78.949,23.871L78.949,15.906C78.949,14.812 79.836,13.925 80.93,13.925Z" style="fill:rgb(78,62,81);"/>
                    </g>
                </g>
            </g>
        </g>
    </g>
</svg>
