<?xml version="1.0" encoding="UTF-8" standalone="no"?>
<!DOCTYPE svg PUBLIC "-//W3C//DTD SVG 1.1//EN" "http://www.w3.org/Graphics/SVG/1.1/DTD/svg11.dtd">
<svg width="100%" height="100%" viewBox="0 0 204 54" version="1.1" xmlns="http://www.w3.org/2000/svg" xmlns:xlink="http://www.w3.org/1999/xlink" xml:space="preserve" xmlns:serif="http://www.serif.com/" style="fill-rule:evenodd;clip-rule:evenodd;stroke-linejoin:round;stroke-miterlimit:2;">
    <g transform="matrix(1,0,0,1,-387.605,-68.1051)">
        <g transform="matrix(1,0,0,1,200,76)">
            <g id="Oval" transform="matrix(-0.433404,0.249872,0.433404,0.249872,241.554,-22.9619)">
                <path d="M40.431,125.4C45.002,125.389 59.407,105.172 59.446,88.024C59.486,70.875 45.471,50.724 40.604,50.735C35.736,50.746 21.629,70.592 21.588,88.111C21.547,105.63 35.859,125.411 40.431,125.4Z" style="fill:rgb(88,167,0);"/>
            </g>
        </g>
        <g transform="matrix(1,0,0,1,200,76)">
            <g id="Oval1" serif:id="Oval" transform="matrix(0.433404,0.249872,-0.433404,0.249872,295.137,-35.5924)">
                <path d="M79.993,123.102C83.548,123.094 94.752,107.433 94.782,94.148C94.813,80.864 83.913,65.254 80.127,65.263C76.341,65.272 65.368,80.646 65.337,94.217C65.306,107.788 76.437,123.11 79.993,123.102Z" style="fill:rgb(120,200,0);"/>
            </g>
        </g>
        <g transform="matrix(1,0,0,1,200,76)">
            <g id="Oval-Copy" transform="matrix(0.433404,0.249872,-0.433404,0.249872,264.801,-29.9853)">
                <path d="M79.855,73.863C83.664,73.855 95.669,56.486 95.703,41.753C95.738,27.019 84.06,9.705 80.003,9.715C75.947,9.724 64.19,26.774 64.155,41.826C64.12,56.877 76.045,73.872 79.855,73.863Z" style="fill:rgb(107,179,0);"/>
            </g>
        </g>
        <g transform="matrix(1,0,0,1,200,76)">
            <g id="Oval-Copy1" serif:id="Oval-Copy" transform="matrix(-0.433404,0.249872,0.433404,0.249872,269.168,-14.9041)">
                <path d="M44.216,71.349C47.137,71.343 56.34,58.245 56.366,47.134C56.391,36.024 47.438,22.968 44.328,22.975C41.218,22.982 32.205,35.84 32.178,47.19C32.152,58.541 41.295,71.356 44.216,71.349Z" style="fill:rgb(152,219,0);"/>
            </g>
        </g>
        <g transform="matrix(1,0,0,1,200,76)">
            <g id="Oval2" serif:id="Oval" transform="matrix(0.433404,0.249872,-0.433404,0.249872,347.238,-21.9968)">
                <path d="M40.431,125.4C45.002,125.389 59.407,105.172 59.446,88.024C59.486,70.875 45.471,50.724 40.604,50.735C35.736,50.746 21.629,70.592 21.588,88.111C21.547,105.63 35.859,125.411 40.431,125.4Z" style="fill:rgb(88,167,0);"/>
            </g>
        </g>
        <g transform="matrix(1,0,0,1,200,76)">
            <g id="Oval3" serif:id="Oval" transform="matrix(-0.433404,0.249872,0.433404,0.249872,292.286,-32.3143)">
                <path d="M79.993,123.102C83.548,123.094 94.752,107.433 94.782,94.148C94.813,80.864 83.913,65.254 80.127,65.263C76.341,65.272 65.368,80.646 65.337,94.217C65.306,107.788 76.437,123.11 79.993,123.102Z" style="fill:rgb(120,200,0);"/>
            </g>
        </g>
        <g transform="matrix(1,0,0,1,200,76)">
            <g id="Oval-Copy2" serif:id="Oval-Copy" transform="matrix(-0.433404,0.249872,0.433404,0.249872,318.673,-28.5922)">
                <path d="M79.855,73.863C83.664,73.855 95.669,56.486 95.703,41.753C95.738,27.019 84.06,9.705 80.003,9.715C75.947,9.724 64.19,26.774 64.155,41.826C64.12,56.877 76.045,73.872 79.855,73.863Z" style="fill:rgb(107,179,0);"/>
            </g>
        </g>
        <g transform="matrix(1,0,0,1,200,76)">
            <g id="Oval-Copy3" serif:id="Oval-Copy" transform="matrix(0.433404,0.249872,-0.433404,0.249872,319.471,-17.9012)">
                <path d="M44.216,71.349C47.137,71.343 56.34,58.245 56.366,47.134C56.391,36.024 47.438,22.968 44.328,22.975C41.218,22.982 32.205,35.84 32.178,47.19C32.152,58.541 41.295,71.356 44.216,71.349Z" style="fill:rgb(152,219,0);"/>
            </g>
        </g>
        <g transform="matrix(1,0,0,1,200,76)">
            <g id="Shape" transform="matrix(0.561683,0,0,0.561683,187.605,-39.0621)">
                <path d="M279.5,143.2L82.1,143.2C71.7,143.2 61.6,139.1 54.1,131.9L28.8,107.5L332.8,107.5L307.5,131.9C300,139.2 290,143.2 279.5,143.2Z" style="fill:rgb(75,75,75);fill-rule:nonzero;"/>
            </g>
        </g>
        <g transform="matrix(1,0,0,1,200,76)">
            <g id="Shape1" serif:id="Shape" transform="matrix(0.561683,0,0,0.561683,187.605,-39.0621)">
                <path d="M37.5,151.3L318.8,151.3C320.9,151.3 322.6,149.6 322.6,147.5C322.6,145.4 320.9,143.7 318.8,143.7L37.5,143.7C35.4,143.7 33.7,145.4 33.7,147.5C33.6,149.6 35.3,151.3 37.5,151.3Z" style="fill:rgb(233,233,234);fill-rule:nonzero;"/>
            </g>
        </g>
        <g transform="matrix(1,0,0,1,200,76)">
            <g id="Shape2" serif:id="Shape" transform="matrix(0.561683,0,0,0.561683,187.605,-39.0621)">
                <path d="M350.5,118.6L11.1,118.6C5,118.6 0,113.6 0,107.5C0,101.4 5,96.4 11.1,96.4L350.4,96.4C356.5,96.4 361.5,101.4 361.5,107.5C361.5,113.6 356.6,118.6 350.5,118.6Z" style="fill:rgb(102,97,97);fill-rule:nonzero;"/>
            </g>
        </g>
    </g>
</svg>
