<?xml version="1.0" encoding="UTF-8" standalone="no"?>
<!DOCTYPE svg PUBLIC "-//W3C//DTD SVG 1.1//EN" "http://www.w3.org/Graphics/SVG/1.1/DTD/svg11.dtd">
<svg width="100%" height="100%" viewBox="0 0 204 95" version="1.1" xmlns="http://www.w3.org/2000/svg" xmlns:xlink="http://www.w3.org/1999/xlink" xml:space="preserve" xmlns:serif="http://www.serif.com/" style="fill-rule:evenodd;clip-rule:evenodd;stroke-linecap:round;">
    <g transform="matrix(1,0,0,1,-387.577,-133.586)">
        <g transform="matrix(1,0,0,1,200,76)">
            <g id="plate_rice_chicken" transform="matrix(0.561683,0,0,0.561683,187.577,67.0174)">
                <path id="Shape" d="M279.5,143.2L82.1,143.2C71.7,143.2 61.6,139.1 54.1,131.9L28.8,107.5L332.8,107.5L307.5,131.9C300,139.2 290,143.2 279.5,143.2Z" style="fill:rgb(75,75,75);fill-rule:nonzero;"/>
                <path id="Shape1" serif:id="Shape" d="M37.5,151.3L318.8,151.3C320.9,151.3 322.6,149.6 322.6,147.5C322.6,145.4 320.9,143.7 318.8,143.7L37.5,143.7C35.4,143.7 33.7,145.4 33.7,147.5C33.6,149.6 35.3,151.3 37.5,151.3Z" style="fill:rgb(233,233,234);fill-rule:nonzero;"/>
                <g id="Group" transform="matrix(1.28889,0,0,1.28889,53.6011,26.9444)">
                    <g id="Shape2" serif:id="Shape">
                        <path d="M106.8,0.5L90.6,0.5C61.2,0.5 33.6,14.9 16.8,39.1L0.5,62.5L196.8,62.5L180.5,39.1C163.8,14.9 136.2,0.5 106.8,0.5Z" style="fill:rgb(242,242,237);fill-rule:nonzero;"/>
                        <g>
                            <path d="M15.6,62.5L189.3,62.5" style="fill:none;stroke:rgb(242,242,237);stroke-width:16.7px;stroke-dasharray:0,15.1;"/>
                            <path d="M188.6,50.6L180.6,39.1C163.8,14.9 136.2,0.5 106.8,0.5L90.6,0.5C61.2,0.5 33.6,14.9 16.8,39.1L4.7,56.6" style="fill:none;stroke:rgb(242,242,237);stroke-width:16.7px;stroke-dasharray:0,14.49;"/>
                        </g>
                    </g>
                    <path id="Shape3" serif:id="Shape" d="M121.7,6.8L102.9,17.3" style="fill:none;stroke:white;stroke-width:7.31px;"/>
                    <path id="Shape4" serif:id="Shape" d="M75.4,5L76.8,20.9" style="fill:none;stroke:white;stroke-width:7.31px;"/>
                    <path id="Shape5" serif:id="Shape" d="M122.8,28.8L101.9,33.4" style="fill:none;stroke:white;stroke-width:7.31px;"/>
                    <path id="Shape6" serif:id="Shape" d="M126.9,17.3L148.1,23.5" style="fill:none;stroke:white;stroke-width:7.31px;"/>
                    <path id="Shape7" serif:id="Shape" d="M49,23.5L29.1,33.4" style="fill:none;stroke:white;stroke-width:7.31px;"/>
                    <path id="Shape8" serif:id="Shape" d="M49,37.9L66.4,33.4" style="fill:none;stroke:white;stroke-width:7.31px;"/>
                    <path id="Shape9" serif:id="Shape" d="M62.2,8.6L61.5,20.9" style="fill:none;stroke:white;stroke-width:7.31px;"/>
                    <path id="Shape10" serif:id="Shape" d="M99.7,3.7L87.5,12.9" style="fill:none;stroke:white;stroke-width:7.31px;"/>
                    <path id="Shape11" serif:id="Shape" d="M152.7,37.9L168.3,29.9" style="fill:none;stroke:white;stroke-width:7.31px;"/>
                    <path id="Shape12" serif:id="Shape" d="M140.1,36.9L130,41.8" style="fill:none;stroke:white;stroke-width:7.31px;"/>
                    <path id="Shape13" serif:id="Shape" d="M80.6,31.5L91.4,39.3" style="fill:none;stroke:white;stroke-width:7.31px;"/>
                    <path id="Shape14" serif:id="Shape" d="M35.7,44.4L19,41.8" style="fill:none;stroke:white;stroke-width:7.31px;"/>
                    <path id="Shape15" serif:id="Shape" d="M137.5,6.9L148.1,12.9" style="fill:none;stroke:white;stroke-width:7.31px;"/>
                </g>
                <path id="Shape16" serif:id="Shape" d="M350.5,118.6L11.1,118.6C5,118.6 0,113.6 0,107.5C0,101.4 5,96.4 11.1,96.4L350.4,96.4C356.5,96.4 361.5,101.4 361.5,107.5C361.5,113.6 356.6,118.6 350.5,118.6Z" style="fill:rgb(102,97,97);fill-rule:nonzero;"/>
            </g>
        </g>
    </g>
</svg>
