<?xml version="1.0" encoding="UTF-8" standalone="no"?>
<!DOCTYPE svg PUBLIC "-//W3C//DTD SVG 1.1//EN" "http://www.w3.org/Graphics/SVG/1.1/DTD/svg11.dtd">
<svg width="100%" height="100%" viewBox="0 0 156 179" version="1.1" xmlns="http://www.w3.org/2000/svg" xmlns:xlink="http://www.w3.org/1999/xlink" xml:space="preserve" xmlns:serif="http://www.serif.com/" style="fill-rule:evenodd;clip-rule:evenodd;stroke-linecap:round;">
    <g transform="matrix(1,0,0,1,-27.6074,-27)">
        <g id="Rectangle-Copy" transform="matrix(1,0,0,1,45,27)">
            <path id="Mask" d="M5.195,0L116.805,0C119.504,0 121.693,2.188 121.693,4.888C121.693,4.987 121.69,5.087 121.684,5.186L112.94,148.524C112.547,154.972 107.203,160 100.743,160L21.257,160C14.797,160 9.453,154.972 9.06,148.524L0.316,5.186C0.152,2.491 2.203,0.173 4.898,0.009C4.997,0.003 5.096,0 5.195,0Z" style="fill:rgb(151,233,255);fill-rule:nonzero;"/>
            <clipPath id="_clip1">
                <path id="Mask1" serif:id="Mask" d="M5.195,0L116.805,0C119.504,0 121.693,2.188 121.693,4.888C121.693,4.987 121.69,5.087 121.684,5.186L112.94,148.524C112.547,154.972 107.203,160 100.743,160L21.257,160C14.797,160 9.453,154.972 9.06,148.524L0.316,5.186C0.152,2.491 2.203,0.173 4.898,0.009C4.997,0.003 5.096,0 5.195,0Z" clip-rule="nonzero"/>
            </clipPath>
            <g clip-path="url(#_clip1)">
                <path d="M14.925,-4.885L107.075,-4.885C109.775,-4.885 111.963,-2.697 111.963,0.003C111.963,0.092 111.961,0.182 111.956,0.271L104.081,143.3C103.867,147.187 100.653,150.229 96.761,150.229L25.239,150.229C21.347,150.229 18.133,147.187 17.919,143.3L10.044,0.271C9.896,-2.424 11.96,-4.73 14.656,-4.878C14.745,-4.883 14.835,-4.885 14.925,-4.885Z" style="fill:rgb(187,242,255);fill-rule:nonzero;"/>
            </g>
            <path id="Rectangle" d="M24.546,9.771L39.004,9.771C41.704,9.771 43.892,11.959 43.892,14.659C43.892,14.686 43.892,14.712 43.892,14.739L42.158,120.993C42.114,123.661 39.939,125.802 37.27,125.802L30.925,125.802C28.339,125.802 26.2,123.788 26.045,121.206L19.667,14.952C19.505,12.257 21.558,9.942 24.253,9.78C24.351,9.774 24.448,9.771 24.546,9.771Z" style="fill:white;fill-opacity:0.65;fill-rule:nonzero;"/>
        </g>
        <g id="Group" transform="matrix(0.466662,0,0,1.34007,59.9638,87.4078)">
            <g id="Shape">
                <path d="M106.8,0.5L90.6,0.5C61.2,0.5 33.6,14.9 16.8,39.1L0.5,62.5L196.8,62.5L180.5,39.1C163.8,14.9 136.2,0.5 106.8,0.5Z" style="fill:rgb(242,242,237);fill-rule:nonzero;"/>
                <g>
                    <path d="M15.6,62.5L189.3,62.5" style="fill:none;stroke:rgb(242,242,237);stroke-width:16.7px;stroke-dasharray:0,15.1;"/>
                    <path d="M188.6,50.6L180.6,39.1C163.8,14.9 136.2,0.5 106.8,0.5L90.6,0.5C61.2,0.5 33.6,14.9 16.8,39.1L4.7,56.6" style="fill:none;stroke:rgb(242,242,237);stroke-width:16.7px;stroke-dasharray:0,14.49;"/>
                </g>
            </g>
            <path id="Shape1" serif:id="Shape" d="M121.7,6.8L102.9,17.3" style="fill:none;stroke:white;stroke-width:7.31px;"/>
            <path id="Shape2" serif:id="Shape" d="M75.4,5L76.8,20.9" style="fill:none;stroke:white;stroke-width:7.31px;"/>
            <path id="Shape3" serif:id="Shape" d="M122.8,28.8L101.9,33.4" style="fill:none;stroke:white;stroke-width:7.31px;"/>
            <path id="Shape4" serif:id="Shape" d="M126.9,17.3L148.1,23.5" style="fill:none;stroke:white;stroke-width:7.31px;"/>
            <path id="Shape5" serif:id="Shape" d="M49,23.5L29.1,33.4" style="fill:none;stroke:white;stroke-width:7.31px;"/>
            <path id="Shape6" serif:id="Shape" d="M49,37.9L66.4,33.4" style="fill:none;stroke:white;stroke-width:7.31px;"/>
            <path id="Shape7" serif:id="Shape" d="M62.2,8.6L61.5,20.9" style="fill:none;stroke:white;stroke-width:7.31px;"/>
            <path id="Shape8" serif:id="Shape" d="M99.7,3.7L87.5,12.9" style="fill:none;stroke:white;stroke-width:7.31px;"/>
            <path id="Shape9" serif:id="Shape" d="M152.7,37.9L168.3,29.9" style="fill:none;stroke:white;stroke-width:7.31px;"/>
            <path id="Shape10" serif:id="Shape" d="M140.1,36.9L130,41.8" style="fill:none;stroke:white;stroke-width:7.31px;"/>
            <path id="Shape11" serif:id="Shape" d="M80.6,31.5L91.4,39.3" style="fill:none;stroke:white;stroke-width:7.31px;"/>
            <path id="Shape12" serif:id="Shape" d="M35.7,44.4L19,41.8" style="fill:none;stroke:white;stroke-width:7.31px;"/>
            <path id="Shape13" serif:id="Shape" d="M137.5,6.9L148.1,12.9" style="fill:none;stroke:white;stroke-width:7.31px;"/>
        </g>
    </g>
</svg>
