<?xml version="1.0" encoding="UTF-8" standalone="no"?>
<!DOCTYPE svg PUBLIC "-//W3C//DTD SVG 1.1//EN" "http://www.w3.org/Graphics/SVG/1.1/DTD/svg11.dtd">
<svg width="100%" height="100%" viewBox="0 0 179 171" version="1.1" xmlns="http://www.w3.org/2000/svg" xmlns:xlink="http://www.w3.org/1999/xlink" xml:space="preserve" xmlns:serif="http://www.serif.com/" style="fill-rule:evenodd;clip-rule:evenodd;stroke-linejoin:round;stroke-miterlimit:2;">
    <g transform="matrix(1,0,0,1,-17,-21.7586)">
        <g id="snow">
            <g id="Group" transform="matrix(1,0,0,1,103,113)">
                <path id="Path" d="M14.5,3.941L15.59,2.806C18.458,-0.182 23.206,-0.279 26.194,2.59C29.182,5.458 29.279,10.206 26.41,13.194L24.897,14.771L26.41,16.347C29.279,19.335 29.182,24.083 26.194,26.951C23.206,29.82 18.458,29.723 15.59,26.735L14.5,25.6L13.41,26.735C10.542,29.723 5.794,29.82 2.806,26.951C-0.182,24.083 -0.279,19.335 2.59,16.347L4.103,14.771L2.59,13.194C-0.279,10.206 -0.182,5.458 2.806,2.59C5.794,-0.279 10.542,-0.182 13.41,2.806L14.5,3.941Z" style="fill:rgb(173,224,238);fill-rule:nonzero;"/>
            </g>
            <g id="Group-Copy-2" transform="matrix(1,0,0,1,39,128)">
                <path id="Path1" serif:id="Path" d="M14.5,3.941L15.59,2.806C18.458,-0.182 23.206,-0.279 26.194,2.59C29.182,5.458 29.279,10.206 26.41,13.194L24.897,14.771L26.41,16.347C29.279,19.335 29.182,24.083 26.194,26.951C23.206,29.82 18.458,29.723 15.59,26.735L14.5,25.6L13.41,26.735C10.542,29.723 5.794,29.82 2.806,26.951C-0.182,24.083 -0.279,19.335 2.59,16.347L4.103,14.771L2.59,13.194C-0.279,10.206 -0.182,5.458 2.806,2.59C5.794,-0.279 10.542,-0.182 13.41,2.806L14.5,3.941Z" style="fill:rgb(173,224,238);fill-rule:nonzero;"/>
            </g>
            <g id="Group-Copy-3" transform="matrix(1,0,0,1,81,163)">
                <path id="Path2" serif:id="Path" d="M14.5,3.941L15.59,2.806C18.458,-0.182 23.206,-0.279 26.194,2.59C29.182,5.458 29.279,10.206 26.41,13.194L24.897,14.771L26.41,16.347C29.279,19.335 29.182,24.083 26.194,26.951C23.206,29.82 18.458,29.723 15.59,26.735L14.5,25.6L13.41,26.735C10.542,29.723 5.794,29.82 2.806,26.951C-0.182,24.083 -0.279,19.335 2.59,16.347L4.103,14.771L2.59,13.194C-0.279,10.206 -0.182,5.458 2.806,2.59C5.794,-0.279 10.542,-0.182 13.41,2.806L14.5,3.941Z" style="fill:rgb(173,224,238);fill-rule:nonzero;"/>
            </g>
            <g id="Group-Copy-4" transform="matrix(1,0,0,1,143,142)">
                <path id="Path3" serif:id="Path" d="M14.5,3.941L15.59,2.806C18.458,-0.182 23.206,-0.279 26.194,2.59C29.182,5.458 29.279,10.206 26.41,13.194L24.897,14.771L26.41,16.347C29.279,19.335 29.182,24.083 26.194,26.951C23.206,29.82 18.458,29.723 15.59,26.735L14.5,25.6L13.41,26.735C10.542,29.723 5.794,29.82 2.806,26.951C-0.182,24.083 -0.279,19.335 2.59,16.347L4.103,14.771L2.59,13.194C-0.279,10.206 -0.182,5.458 2.806,2.59C5.794,-0.279 10.542,-0.182 13.41,2.806L14.5,3.941Z" style="fill:rgb(173,224,238);fill-rule:nonzero;"/>
            </g>
            <g id="Group-Copy" transform="matrix(1,0,0,1,17,21)">
                <path id="Combined-Shape" d="M18.298,68.759L160.702,68.759C170.808,68.759 179,75.343 179,83.466C179,91.588 170.808,98.172 160.702,98.172L18.298,98.172C8.192,98.172 0,91.588 0,83.466C0,75.343 8.192,68.759 18.298,68.759ZM64,0.759C90.51,0.759 112,22.249 112,48.759C112,75.268 90.51,96.759 64,96.759C37.49,96.759 16,75.268 16,48.759C16,22.249 37.49,0.759 64,0.759ZM119,20.759C139.987,20.759 157,37.772 157,58.759C157,79.745 139.987,96.759 119,96.759C98.013,96.759 81,79.745 81,58.759C81,37.772 98.013,20.759 119,20.759Z" style="fill:rgb(192,192,192);fill-rule:nonzero;"/>
            </g>
        </g>
    </g>
</svg>
