<?xml version="1.0" encoding="UTF-8" standalone="no"?>
<!DOCTYPE svg PUBLIC "-//W3C//DTD SVG 1.1//EN" "http://www.w3.org/Graphics/SVG/1.1/DTD/svg11.dtd">
<svg width="100%" height="100%" viewBox="0 0 69 69" version="1.1" xmlns="http://www.w3.org/2000/svg" xmlns:xlink="http://www.w3.org/1999/xlink" xml:space="preserve" xmlns:serif="http://www.serif.com/" style="fill-rule:evenodd;clip-rule:evenodd;stroke-linejoin:round;stroke-miterlimit:2;">
    <g transform="matrix(1,0,0,1,-109.584,-42.1881)">
        <g id="Group-3" transform="matrix(1,0,0,1,101.709,34.477)">
            <g id="Star" transform="matrix(0.920505,-0.390731,0.390731,0.920505,-13.1008,19.8737)">
                <path d="M35.331,71.39L31.594,73.73C30.327,74.524 28.657,74.14 27.863,72.873C27.703,72.617 27.586,72.337 27.519,72.042L26.531,67.742C25.406,62.846 21.583,59.023 16.688,57.898L12.39,56.91C10.933,56.575 10.023,55.122 10.358,53.665C10.425,53.371 10.542,53.09 10.702,52.835L13.043,49.095C15.709,44.837 15.709,39.429 13.043,35.171L10.702,31.432C9.908,30.164 10.292,28.494 11.56,27.701C11.815,27.54 12.096,27.424 12.39,27.357L16.688,26.369C21.583,25.243 25.406,21.42 26.531,16.525L27.519,12.224C27.853,10.767 29.306,9.857 30.763,10.192C31.057,10.259 31.338,10.376 31.594,10.536L35.331,12.877C39.588,15.544 44.994,15.544 49.251,12.877L52.988,10.536C54.255,9.742 55.925,10.126 56.719,11.393C56.879,11.649 56.996,11.93 57.063,12.224L58.051,16.525C59.176,21.42 62.998,25.243 67.894,26.369L72.192,27.357C73.649,27.692 74.559,29.144 74.224,30.602C74.156,30.895 74.04,31.176 73.88,31.432L71.539,35.171C68.873,39.429 68.873,44.837 71.539,49.095L73.88,52.835C74.673,54.102 74.289,55.772 73.022,56.566C72.767,56.726 72.486,56.842 72.192,56.91L67.894,57.898C62.998,59.023 59.176,62.846 58.051,67.742L57.063,72.042C56.728,73.499 55.276,74.409 53.819,74.075C53.524,74.007 53.243,73.891 52.988,73.73L49.251,71.39C44.994,68.723 39.588,68.723 35.331,71.39Z" style="fill:rgb(255,155,26);fill-rule:nonzero;"/>
            </g>
            <ellipse id="Oval" cx="42.775" cy="42.617" rx="21.786" ry="21.792" style="fill:rgb(255,225,26);"/>
        </g>
    </g>
</svg>
